<svg width="25" height="25" viewBox="0 0 25 25" fill="none" xmlns="http://www.w3.org/2000/svg">
<path d="M9.034 12.57C9.15695 12.5175 9.28916 12.4903 9.42283 12.4898C9.5565 12.4893 9.68891 12.5156 9.81223 12.5672C9.93555 12.6188 10.0473 12.6945 10.1408 12.79C10.2344 12.8855 10.3078 12.9988 10.3568 13.1231C10.4058 13.2475 10.4294 13.3804 10.4262 13.514C10.4229 13.6477 10.3929 13.7793 10.3379 13.9011C10.2829 14.023 10.2041 14.1325 10.106 14.2234C10.008 14.3142 9.89268 14.3845 9.767 14.43C9.09854 14.6934 8.52483 15.1519 8.1205 15.7458C7.71618 16.3397 7.49997 17.0415 7.5 17.76V19.5C7.5 19.7652 7.60536 20.0196 7.79289 20.2071C7.98043 20.3946 8.23478 20.5 8.5 20.5H16.5C16.7652 20.5 17.0196 20.3946 17.2071 20.2071C17.3946 20.0196 17.5 19.7652 17.5 19.5V17.853C17.5001 17.1115 17.2749 16.3874 16.8541 15.7768C16.4334 15.1662 15.837 14.6979 15.144 14.434C15.0175 14.3901 14.9012 14.3213 14.8018 14.2316C14.7024 14.1419 14.6221 14.0332 14.5655 13.9119C14.509 13.7905 14.4773 13.6591 14.4725 13.5253C14.4677 13.3916 14.4897 13.2582 14.5374 13.1331C14.5851 13.008 14.6574 12.8938 14.75 12.7972C14.8427 12.7006 14.9538 12.6235 15.0767 12.5706C15.1997 12.5177 15.332 12.4901 15.4659 12.4893C15.5998 12.4885 15.7324 12.5146 15.856 12.566C16.9276 12.9742 17.8499 13.6983 18.5006 14.6425C19.1514 15.5867 19.4999 16.7063 19.5 17.853V19.5C19.5 20.2956 19.1839 21.0587 18.6213 21.6213C18.0587 22.1839 17.2956 22.5 16.5 22.5H8.5C7.70435 22.5 6.94129 22.1839 6.37868 21.6213C5.81607 21.0587 5.5 20.2956 5.5 19.5V17.76C5.50014 16.6402 5.83728 15.5463 6.46756 14.6206C7.09785 13.695 7.9921 12.9805 9.034 12.57ZM12.5 2.5C13.5609 2.5 14.5783 2.92143 15.3284 3.67157C16.0786 4.42172 16.5 5.43913 16.5 6.5V8.5C16.5 9.56087 16.0786 10.5783 15.3284 11.3284C14.5783 12.0786 13.5609 12.5 12.5 12.5C11.4391 12.5 10.4217 12.0786 9.67157 11.3284C8.92143 10.5783 8.5 9.56087 8.5 8.5V6.5C8.5 5.43913 8.92143 4.42172 9.67157 3.67157C10.4217 2.92143 11.4391 2.5 12.5 2.5V2.5ZM12.5 4.5C11.9696 4.5 11.4609 4.71071 11.0858 5.08579C10.7107 5.46086 10.5 5.96957 10.5 6.5V8.5C10.5 9.03043 10.7107 9.53914 11.0858 9.91421C11.4609 10.2893 11.9696 10.5 12.5 10.5C13.0304 10.5 13.5391 10.2893 13.9142 9.91421C14.2893 9.53914 14.5 9.03043 14.5 8.5V6.5C14.5 5.96957 14.2893 5.46086 13.9142 5.08579C13.5391 4.71071 13.0304 4.5 12.5 4.5Z" fill="#C1C7CD"/>
</svg>
